<svg width="2000px" height="1819px"
 viewBox="0.00 0.00 741.00 674.20" xmlns="http://www.w3.org/2000/svg" xmlns:xlink="http://www.w3.org/1999/xlink">
<g id="graph0" class="graph" transform="scale(1.0 1.0) rotate(0) translate(4 670.2)">
<title>ContextMapGraph</title>
<polygon fill="white" stroke="transparent" points="-4,4 -4,-670.2 737,-670.2 737,4 -4,4"/>
<!-- Inventario -->
<g id="node1" class="node">
<title>Inventario</title>
<polygon fill="none" stroke="black" stroke-width="2" points="125.82,-654.93 121.1,-653.25 116.55,-651.48 112.2,-649.63 108.06,-647.71 104.16,-645.72 100.5,-643.67 97.1,-641.57 93.98,-639.43 91.14,-637.25 88.61,-635.04 86.39,-632.8 84.48,-630.54 82.9,-628.28 81.65,-626.01 80.73,-623.75 80.15,-621.49 79.9,-619.24 79.99,-617.02 80.4,-614.82 81.15,-612.65 82.21,-610.51 83.58,-608.42 85.26,-606.36 87.23,-604.36 89.49,-602.4 92.01,-600.5 94.79,-598.66 97.81,-596.87 101.05,-595.15 104.51,-593.5 108.16,-591.91 111.98,-590.4 115.97,-588.96 120.1,-587.59 124.35,-586.3 128.71,-585.09 133.16,-583.96 137.69,-582.91 142.27,-581.95 146.9,-581.07 151.55,-580.28 156.21,-579.58 160.87,-578.97 165.52,-578.45 170.13,-578.03 174.7,-577.69 179.22,-577.46 183.68,-577.32 188.06,-577.28 192.37,-577.34 196.58,-577.5 200.7,-577.76 204.72,-578.12 208.64,-578.59 212.44,-579.16 216.12,-579.83 219.69,-580.61 223.13,-581.49 226.46,-582.48 229.65,-583.57 232.71,-584.76 235.65,-586.05 238.45,-587.44 241.13,-588.92 243.66,-590.51 246.06,-592.18 248.33,-593.94 250.46,-595.79 252.44,-597.72 254.29,-599.73 255.99,-601.81 257.54,-603.96 258.94,-606.17 260.19,-608.44 261.29,-610.76 262.22,-613.12 262.99,-615.52 263.6,-617.95 264.03,-620.4 264.28,-622.87 264.35,-625.34 264.23,-627.81 263.93,-630.27 263.42,-632.71 262.72,-635.13 261.8,-637.51 260.68,-639.84 259.35,-642.13 257.8,-644.35 256.02,-646.5 254.03,-648.58 251.82,-650.57 249.38,-652.47 246.72,-654.27 243.83,-655.97 240.73,-657.55 237.41,-659.02 233.88,-660.36 230.14,-661.58 226.2,-662.66 222.08,-663.6 217.77,-664.41 213.28,-665.07 208.64,-665.59 203.85,-665.97 198.93,-666.19 193.88,-666.27 188.74,-666.21 183.51,-666 178.21,-665.64 172.86,-665.15 167.48,-664.51 162.09,-663.74 156.71,-662.84 151.36,-661.81 146.06,-660.66 140.84,-659.39 135.71,-658.01 130.7,-656.52 125.82,-654.93"/>
<text text-anchor="middle" x="179" y="-615.82" font-family="sans-serif" font-size="16.00">Inventario</text>
</g>
<!-- Ventas -->
<g id="node2" class="node">
<title>Ventas</title>
<polygon fill="none" stroke="black" stroke-width="2" points="152.08,-208.34 149.64,-205.9 147.37,-203.41 145.3,-200.89 143.43,-198.34 141.76,-195.77 140.31,-193.18 139.09,-190.6 138.09,-188.03 137.32,-185.48 136.8,-182.96 136.51,-180.47 136.46,-178.02 136.66,-175.62 137.1,-173.29 137.79,-171.01 138.71,-168.81 139.87,-166.68 141.26,-164.63 142.88,-162.66 144.72,-160.78 146.77,-158.99 149.03,-157.3 151.48,-155.7 154.12,-154.21 156.93,-152.81 159.91,-151.51 163.04,-150.31 166.31,-149.21 169.7,-148.22 173.21,-147.32 176.83,-146.52 180.52,-145.83 184.3,-145.23 188.13,-144.72 192,-144.31 195.91,-144 199.84,-143.77 203.77,-143.64 207.69,-143.59 211.59,-143.64 215.46,-143.76 219.28,-143.98 223.05,-144.27 226.75,-144.65 230.37,-145.11 233.91,-145.65 237.35,-146.27 240.69,-146.96 243.91,-147.74 247.02,-148.59 250,-149.52 252.86,-150.53 255.57,-151.61 258.15,-152.77 260.59,-154 262.87,-155.31 265.01,-156.7 267,-158.16 268.84,-159.69 270.52,-161.29 272.05,-162.96 273.42,-164.71 274.64,-166.52 275.7,-168.39 276.61,-170.33 277.36,-172.33 277.96,-174.39 278.41,-176.5 278.71,-178.66 278.85,-180.87 278.85,-183.12 278.7,-185.4 278.41,-187.72 277.96,-190.06 277.38,-192.41 276.65,-194.78 275.78,-197.15 274.77,-199.52 273.62,-201.88 272.33,-204.21 270.9,-206.52 269.34,-208.8 267.65,-211.02 265.82,-213.2 263.86,-215.31 261.78,-217.35 259.56,-219.31 257.23,-221.19 254.76,-222.96 252.19,-224.64 249.49,-226.2 246.68,-227.64 243.77,-228.95 240.75,-230.13 237.63,-231.17 234.42,-232.07 231.12,-232.81 227.74,-233.41 224.28,-233.84 220.76,-234.12 217.18,-234.23 213.55,-234.18 209.88,-233.97 206.18,-233.59 202.46,-233.05 198.73,-232.35 195,-231.49 191.28,-230.47 187.59,-229.31 183.93,-227.99 180.32,-226.54 176.77,-224.96 173.3,-223.24 169.91,-221.41 166.62,-219.46 163.44,-217.41 160.38,-215.26 157.47,-213.03 154.69,-210.71 152.08,-208.34"/>
<text text-anchor="middle" x="212" y="-181.6" font-family="sans-serif" font-size="16.00">Ventas</text>
</g>
<!-- Inventario&#45;&gt;Ventas -->
<g id="edge1" class="edge">
<title>Inventario&#45;&gt;Ventas</title>
<path fill="none" stroke="black" stroke-width="2" d="M181.1,-577.34C184.71,-509.41 192.82,-369.86 204,-252.06 204.56,-246.12 205.23,-239.88 205.93,-233.71"/>
<text text-anchor="middle" x="268.5" y="-399.9" font-family="sans-serif" font-size="12.00"> &#160;&#160;&#160;&#160;&#160;&#160;&#160;&#160;&#160;&#160;&#160;&#160;&#160;&#160;&#160;&#160;&#160;&#160;&#160;&#160;&#160;&#160;&#160;&#160;&#160;&#160;&#160;&#160;&#160;&#160;&#160;&#160;&#160;&#160;&#160;&#160;&#160;&#160;&#160;</text>
<polygon fill="white" stroke="transparent" points="198.93,-224.71 198.93,-241.71 212.93,-241.71 212.93,-224.71 198.93,-224.71"/>
<text text-anchor="start" x="200.93" y="-230.11" font-family="sans-serif" font-size="12.00">D</text>
<polygon fill="white" stroke="transparent" points="174.1,-568.34 174.1,-585.34 188.1,-585.34 188.1,-568.34 174.1,-568.34"/>
<text text-anchor="start" x="176.1" y="-573.74" font-family="sans-serif" font-size="12.00">U</text>
</g>
<!-- Pagos -->
<g id="node3" class="node">
<title>Pagos</title>
<polygon fill="none" stroke="black" stroke-width="2" points="290.85,-87.57 286.58,-87.43 282.35,-87.17 278.18,-86.8 274.08,-86.3 270.07,-85.69 266.16,-84.96 262.37,-84.11 258.71,-83.16 255.2,-82.1 251.85,-80.93 248.68,-79.65 245.68,-78.28 242.88,-76.82 240.27,-75.26 237.87,-73.61 235.69,-71.88 233.72,-70.08 231.97,-68.2 230.45,-66.25 229.15,-64.24 228.08,-62.17 227.23,-60.05 226.6,-57.89 226.19,-55.69 225.99,-53.45 226.01,-51.19 226.22,-48.91 226.64,-46.61 227.24,-44.3 228.03,-42 228.99,-39.7 230.12,-37.41 231.41,-35.14 232.84,-32.89 234.42,-30.68 236.12,-28.5 237.95,-26.37 239.88,-24.28 241.93,-22.25 244.06,-20.28 246.28,-18.37 248.58,-16.54 250.96,-14.78 253.39,-13.1 255.89,-11.51 258.43,-10.01 261.02,-8.61 263.65,-7.3 266.32,-6.09 269.01,-4.99 271.73,-3.99 274.48,-3.11 277.25,-2.33 280.03,-1.68 282.83,-1.13 285.65,-0.71 288.47,-0.4 291.3,-0.22 294.14,-0.15 296.99,-0.21 299.84,-0.38 302.69,-0.67 305.54,-1.08 308.38,-1.61 311.23,-2.25 314.06,-3 316.88,-3.87 319.68,-4.84 322.47,-5.92 325.23,-7.1 327.96,-8.39 330.65,-9.76 333.3,-11.24 335.91,-12.79 338.46,-14.44 340.94,-16.16 343.36,-17.95 345.7,-19.82 347.94,-21.75 350.09,-23.74 352.14,-25.79 354.06,-27.88 355.86,-30.02 357.53,-32.19 359.05,-34.39 360.41,-36.62 361.61,-38.87 362.64,-41.14 363.48,-43.41 364.13,-45.68 364.59,-47.95 364.84,-50.2 364.87,-52.44 364.69,-54.66 364.29,-56.85 363.66,-59 362.81,-61.11 361.72,-63.18 360.4,-65.19 358.86,-67.15 357.08,-69.04 355.08,-70.87 352.86,-72.62 350.43,-74.3 347.78,-75.89 344.94,-77.4 341.9,-78.82 338.68,-80.14 335.29,-81.37 331.74,-82.49 328.05,-83.51 324.23,-84.42 320.29,-85.22 316.25,-85.91 312.13,-86.48 307.94,-86.93 303.69,-87.27 299.42,-87.49 295.13,-87.59 290.85,-87.57"/>
<text text-anchor="middle" x="295" y="-40.06" font-family="sans-serif" font-size="16.00">Pagos</text>
</g>
<!-- Inventario&#45;&gt;Pagos -->
<g id="edge2" class="edge">
<title>Inventario&#45;&gt;Pagos</title>
<path fill="none" stroke="black" stroke-width="2" d="M104.9,-593.14C55.66,-570.96 0,-533.38 0,-476.77 0,-476.77 0,-476.77 0,-184.4 0,-84.82 139.04,-56.21 226.21,-48.05"/>
<text text-anchor="middle" x="75.5" y="-327.68" font-family="sans-serif" font-size="12.00"> &#160;&#160;&#160;&#160;&#160;&#160;&#160;&#160;&#160;&#160;&#160;&#160;&#160;&#160;&#160;&#160;&#160;&#160;&#160;&#160;&#160;&#160;&#160;&#160;&#160;&#160;&#160;&#160;&#160;&#160;&#160;&#160;&#160;&#160;&#160;&#160;&#160;&#160;&#160;</text>
<polygon fill="white" stroke="transparent" points="203.21,-38.05 203.21,-57.05 219.21,-57.05 219.21,-38.05 203.21,-38.05"/>
<polyline fill="none" stroke="black" points="219.21,-38.05 219.21,-57.05 "/>
<text text-anchor="start" x="206.21" y="-44.45" font-family="sans-serif" font-size="12.00">D</text>
<polygon fill="white" stroke="transparent" points="219.21,-38.05 219.21,-57.05 249.21,-57.05 249.21,-38.05 219.21,-38.05"/>
<polygon fill="none" stroke="black" points="219.21,-38.05 219.21,-57.05 249.21,-57.05 249.21,-38.05 219.21,-38.05"/>
<text text-anchor="start" x="222.21" y="-44.45" font-family="sans-serif" font-size="12.00">ACL</text>
<polygon fill="white" stroke="transparent" points="97.9,-584.14 97.9,-601.14 111.9,-601.14 111.9,-584.14 97.9,-584.14"/>
<text text-anchor="start" x="99.9" y="-589.54" font-family="sans-serif" font-size="12.00">U</text>
</g>
<!-- Promociones -->
<g id="node4" class="node">
<title>Promociones</title>
<polygon fill="none" stroke="black" stroke-width="2" points="448.9,-449.24 453.11,-451.48 457.07,-453.79 460.76,-456.14 464.16,-458.54 467.26,-460.97 470.04,-463.42 472.49,-465.88 474.6,-468.36 476.36,-470.82 477.77,-473.28 478.81,-475.72 479.48,-478.13 479.78,-480.5 479.7,-482.84 479.26,-485.13 478.44,-487.37 477.25,-489.54 475.7,-491.66 473.79,-493.7 471.54,-495.67 468.95,-497.57 466.03,-499.39 462.8,-501.12 459.27,-502.77 455.46,-504.34 451.38,-505.81 447.05,-507.2 442.49,-508.49 437.72,-509.7 432.75,-510.81 427.61,-511.83 422.31,-512.76 416.89,-513.6 411.35,-514.34 405.72,-515 400.02,-515.57 394.27,-516.04 388.5,-516.43 382.71,-516.73 376.93,-516.94 371.18,-517.07 365.48,-517.11 359.84,-517.06 354.27,-516.93 348.8,-516.71 343.44,-516.41 338.2,-516.03 333.1,-515.56 328.14,-515 323.34,-514.36 318.7,-513.64 314.23,-512.83 309.95,-511.94 305.85,-510.97 301.94,-509.91 298.24,-508.76 294.73,-507.54 291.43,-506.23 288.34,-504.84 285.46,-503.37 282.79,-501.82 280.33,-500.19 278.08,-498.48 276.05,-496.7 274.22,-494.84 272.62,-492.92 271.22,-490.93 270.03,-488.87 269.06,-486.76 268.3,-484.59 267.74,-482.37 267.4,-480.11 267.27,-477.81 267.34,-475.47 267.62,-473.11 268.12,-470.73 268.82,-468.33 269.72,-465.93 270.84,-463.53 272.17,-461.14 273.7,-458.77 275.45,-456.42 277.4,-454.11 279.57,-451.85 281.94,-449.64 284.52,-447.49 287.31,-445.41 290.3,-443.41 293.5,-441.5 296.9,-439.68 300.49,-437.96 304.29,-436.36 308.27,-434.87 312.45,-433.51 316.8,-432.28 321.33,-431.19 326.02,-430.24 330.87,-429.43 335.87,-428.78 341,-428.28 346.26,-427.93 351.64,-427.75 357.12,-427.72 362.68,-427.85 368.31,-428.14 374,-428.59 379.73,-429.2 385.48,-429.95 391.22,-430.86 396.96,-431.92 402.65,-433.12 408.29,-434.45 413.85,-435.92 419.31,-437.51 424.66,-439.21 429.86,-441.03 434.91,-442.95 439.78,-444.96 444.45,-447.06 448.9,-449.24"/>
<text text-anchor="middle" x="366" y="-471.97" font-family="sans-serif" font-size="16.00">Promociones</text>
</g>
<!-- Inventario&#45;&gt;Promociones -->
<g id="edge3" class="edge">
<title>Inventario&#45;&gt;Promociones</title>
<path fill="none" stroke="black" stroke-width="2" d="M226.67,-582.46C254.48,-561.37 289.48,-534.82 317.44,-513.61"/>
<text text-anchor="middle" x="353.5" y="-545.45" font-family="sans-serif" font-size="12.00"> &#160;&#160;&#160;&#160;&#160;&#160;&#160;&#160;&#160;&#160;&#160;&#160;&#160;&#160;&#160;&#160;&#160;&#160;&#160;&#160;&#160;&#160;&#160;&#160;&#160;&#160;&#160;&#160;&#160;&#160;&#160;&#160;&#160;&#160;&#160;&#160;&#160;&#160;&#160;</text>
<polygon fill="white" stroke="transparent" points="298.44,-503.61 298.44,-522.61 314.44,-522.61 314.44,-503.61 298.44,-503.61"/>
<polyline fill="none" stroke="black" points="314.44,-503.61 314.44,-522.61 "/>
<text text-anchor="start" x="301.44" y="-510.01" font-family="sans-serif" font-size="12.00">D</text>
<polygon fill="white" stroke="transparent" points="314.44,-503.61 314.44,-522.61 336.44,-522.61 336.44,-503.61 314.44,-503.61"/>
<polygon fill="none" stroke="black" points="314.44,-503.61 314.44,-522.61 336.44,-522.61 336.44,-503.61 314.44,-503.61"/>
<text text-anchor="start" x="317.44" y="-510.01" font-family="sans-serif" font-size="12.00">CF</text>
<polygon fill="white" stroke="transparent" points="219.67,-573.46 219.67,-590.46 233.67,-590.46 233.67,-573.46 219.67,-573.46"/>
<text text-anchor="start" x="221.67" y="-578.86" font-family="sans-serif" font-size="12.00">U</text>
</g>
<!-- Ventas&#45;&gt;Pagos -->
<g id="edge4" class="edge">
<title>Ventas&#45;&gt;Pagos</title>
<path fill="none" stroke="black" stroke-width="2" d="M205.67,-143.49C205.47,-130.8 207.16,-117.16 213,-105.73 219.13,-93.73 228.85,-83.49 239.49,-75.03"/>
<text text-anchor="middle" x="288.5" y="-109.13" font-family="sans-serif" font-size="12.00"> &#160;&#160;&#160;&#160;&#160;&#160;&#160;&#160;&#160;&#160;&#160;&#160;&#160;&#160;&#160;&#160;&#160;&#160;&#160;&#160;&#160;&#160;&#160;&#160;&#160;&#160;&#160;&#160;&#160;&#160;&#160;&#160;&#160;&#160;&#160;&#160;&#160;&#160;&#160;</text>
<polygon fill="white" stroke="transparent" points="216.49,-65.03 216.49,-84.03 232.49,-84.03 232.49,-65.03 216.49,-65.03"/>
<polyline fill="none" stroke="black" points="232.49,-65.03 232.49,-84.03 "/>
<text text-anchor="start" x="219.49" y="-71.43" font-family="sans-serif" font-size="12.00">D</text>
<polygon fill="white" stroke="transparent" points="232.49,-65.03 232.49,-84.03 262.49,-84.03 262.49,-65.03 232.49,-65.03"/>
<polygon fill="none" stroke="black" points="232.49,-65.03 232.49,-84.03 262.49,-84.03 262.49,-65.03 232.49,-65.03"/>
<text text-anchor="start" x="235.49" y="-71.43" font-family="sans-serif" font-size="12.00">ACL</text>
<polygon fill="white" stroke="transparent" points="198.67,-134.49 198.67,-151.49 212.67,-151.49 212.67,-134.49 198.67,-134.49"/>
<text text-anchor="start" x="200.67" y="-139.89" font-family="sans-serif" font-size="12.00">U</text>
</g>
<!-- Promociones&#45;&gt;Pagos -->
<g id="edge5" class="edge">
<title>Promociones&#45;&gt;Pagos</title>
<path fill="none" stroke="black" stroke-width="2" d="M458.24,-454.46C482.25,-444.75 505.66,-430.47 521,-409.5 592.7,-311.48 605.97,-236.68 537,-136.73 498.59,-81.06 421.7,-59.1 364.85,-50.45"/>
<text text-anchor="middle" x="657.5" y="-255.46" font-family="sans-serif" font-size="12.00"> &#160;&#160;&#160;&#160;&#160;&#160;&#160;&#160;&#160;&#160;&#160;&#160;&#160;&#160;&#160;&#160;&#160;&#160;&#160;&#160;&#160;&#160;&#160;&#160;&#160;&#160;&#160;&#160;&#160;&#160;&#160;&#160;&#160;&#160;&#160;&#160;&#160;&#160;&#160;</text>
<polygon fill="white" stroke="transparent" points="341.85,-40.45 341.85,-59.45 357.85,-59.45 357.85,-40.45 341.85,-40.45"/>
<polyline fill="none" stroke="black" points="357.85,-40.45 357.85,-59.45 "/>
<text text-anchor="start" x="344.85" y="-46.85" font-family="sans-serif" font-size="12.00">D</text>
<polygon fill="white" stroke="transparent" points="357.85,-40.45 357.85,-59.45 387.85,-59.45 387.85,-40.45 357.85,-40.45"/>
<polygon fill="none" stroke="black" points="357.85,-40.45 357.85,-59.45 387.85,-59.45 387.85,-40.45 357.85,-40.45"/>
<text text-anchor="start" x="360.85" y="-46.85" font-family="sans-serif" font-size="12.00">ACL</text>
<polygon fill="white" stroke="transparent" points="451.24,-445.46 451.24,-462.46 465.24,-462.46 465.24,-445.46 451.24,-445.46"/>
<text text-anchor="start" x="453.24" y="-450.86" font-family="sans-serif" font-size="12.00">U</text>
</g>
<!-- Usuarios -->
<g id="node5" class="node">
<title>Usuarios</title>
<polygon fill="none" stroke="black" stroke-width="2" points="444.58,-341.19 443.41,-344 442.03,-346.77 440.44,-349.48 438.66,-352.12 436.68,-354.68 434.51,-357.15 432.17,-359.52 429.65,-361.78 426.96,-363.93 424.12,-365.95 421.12,-367.84 417.99,-369.6 414.72,-371.2 411.32,-372.66 407.81,-373.97 404.2,-375.12 400.49,-376.11 396.7,-376.94 392.83,-377.62 388.9,-378.13 384.91,-378.48 380.88,-378.68 376.81,-378.71 372.71,-378.6 368.61,-378.34 364.5,-377.94 360.39,-377.39 356.31,-376.71 352.25,-375.91 348.22,-374.98 344.25,-373.94 340.33,-372.79 336.48,-371.54 332.7,-370.19 329.01,-368.76 325.42,-367.24 321.93,-365.65 318.55,-364 315.3,-362.29 312.17,-360.52 309.19,-358.71 306.35,-356.86 303.66,-354.98 301.14,-353.06 298.78,-351.13 296.6,-349.17 294.6,-347.2 292.78,-345.23 291.16,-343.24 289.73,-341.26 288.51,-339.27 287.49,-337.29 286.68,-335.32 286.08,-333.35 285.7,-331.39 285.53,-329.45 285.58,-327.52 285.85,-325.6 286.34,-323.7 287.05,-321.82 287.98,-319.95 289.12,-318.11 290.48,-316.29 292.04,-314.49 293.82,-312.71 295.8,-310.96 297.98,-309.23 300.35,-307.54 302.91,-305.88 305.66,-304.25 308.58,-302.66 311.66,-301.11 314.9,-299.6 318.3,-298.14 321.83,-296.73 325.5,-295.38 329.28,-294.09 333.17,-292.86 337.17,-291.71 341.25,-290.63 345.4,-289.63 349.62,-288.71 353.89,-287.89 358.2,-287.16 362.54,-286.54 366.89,-286.02 371.23,-285.61 375.57,-285.33 379.88,-285.17 384.15,-285.13 388.37,-285.22 392.52,-285.45 396.6,-285.82 400.6,-286.33 404.49,-286.98 408.27,-287.77 411.92,-288.71 415.45,-289.79 418.82,-291.02 422.05,-292.39 425.11,-293.91 428.01,-295.55 430.72,-297.34 433.24,-299.25 435.57,-301.29 437.7,-303.44 439.63,-305.71 441.34,-308.08 442.84,-310.55 444.12,-313.11 445.18,-315.74 446.01,-318.44 446.62,-321.2 447,-324.01 447.16,-326.85 447.09,-329.72 446.79,-332.59 446.27,-335.47 445.53,-338.34 444.58,-341.19"/>
<text text-anchor="middle" x="366" y="-326.98" font-family="sans-serif" font-size="16.00">Usuarios</text>
</g>
<!-- Promociones&#45;&gt;Usuarios -->
<g id="edge6" class="edge">
<title>Promociones&#45;&gt;Usuarios</title>
<path fill="none" stroke="black" stroke-width="2" d="M366,-427.95C366,-411.99 366,-394.15 366,-378.22"/>
<text text-anchor="middle" x="441.5" y="-399.9" font-family="sans-serif" font-size="12.00"> &#160;&#160;&#160;&#160;&#160;&#160;&#160;&#160;&#160;&#160;&#160;&#160;&#160;&#160;&#160;&#160;&#160;&#160;&#160;&#160;&#160;&#160;&#160;&#160;&#160;&#160;&#160;&#160;&#160;&#160;&#160;&#160;&#160;&#160;&#160;&#160;&#160;&#160;&#160;</text>
<polygon fill="white" stroke="transparent" points="359,-369.22 359,-386.22 373,-386.22 373,-369.22 359,-369.22"/>
<text text-anchor="start" x="361" y="-374.62" font-family="sans-serif" font-size="12.00">D</text>
<polygon fill="white" stroke="transparent" points="359,-418.95 359,-435.95 373,-435.95 373,-418.95 359,-418.95"/>
<text text-anchor="start" x="361" y="-424.35" font-family="sans-serif" font-size="12.00">U</text>
</g>
<!-- Usuarios&#45;&gt;Ventas -->
<g id="edge8" class="edge">
<title>Usuarios&#45;&gt;Ventas</title>
<path fill="none" stroke="black" stroke-width="2" d="M290.34,-316.21C261.15,-306.9 230.61,-291.28 213,-265.06 206.83,-255.88 204.46,-244.63 204.11,-233.55"/>
<text text-anchor="middle" x="288.5" y="-255.46" font-family="sans-serif" font-size="12.00"> &#160;&#160;&#160;&#160;&#160;&#160;&#160;&#160;&#160;&#160;&#160;&#160;&#160;&#160;&#160;&#160;&#160;&#160;&#160;&#160;&#160;&#160;&#160;&#160;&#160;&#160;&#160;&#160;&#160;&#160;&#160;&#160;&#160;&#160;&#160;&#160;&#160;&#160;&#160;</text>
<polygon fill="white" stroke="transparent" points="181.11,-223.55 181.11,-242.55 197.11,-242.55 197.11,-223.55 181.11,-223.55"/>
<polyline fill="none" stroke="black" points="197.11,-223.55 197.11,-242.55 "/>
<text text-anchor="start" x="184.11" y="-229.95" font-family="sans-serif" font-size="12.00">D</text>
<polygon fill="white" stroke="transparent" points="197.11,-223.55 197.11,-242.55 227.11,-242.55 227.11,-223.55 197.11,-223.55"/>
<polygon fill="none" stroke="black" points="197.11,-223.55 197.11,-242.55 227.11,-242.55 227.11,-223.55 197.11,-223.55"/>
<text text-anchor="start" x="200.11" y="-229.95" font-family="sans-serif" font-size="12.00">ACL</text>
<polygon fill="white" stroke="transparent" points="283.34,-307.21 283.34,-324.21 297.34,-324.21 297.34,-307.21 283.34,-307.21"/>
<text text-anchor="start" x="285.34" y="-312.61" font-family="sans-serif" font-size="12.00">U</text>
</g>
<!-- Usuarios&#45;&gt;Pagos -->
<g id="edge7" class="edge">
<title>Usuarios&#45;&gt;Pagos</title>
<path fill="none" stroke="black" stroke-width="2" d="M375.9,-284.96C383.99,-238.01 390.26,-163.23 364,-105.73 359.29,-95.41 351.88,-86.14 343.64,-78.12"/>
<text text-anchor="middle" x="457.5" y="-182.3" font-family="sans-serif" font-size="12.00"> &#160;&#160;&#160;&#160;&#160;&#160;&#160;&#160;&#160;&#160;&#160;&#160;&#160;&#160;&#160;&#160;&#160;&#160;&#160;&#160;&#160;&#160;&#160;&#160;&#160;&#160;&#160;&#160;&#160;&#160;&#160;&#160;&#160;&#160;&#160;&#160;&#160;&#160;&#160;</text>
<polygon fill="white" stroke="transparent" points="320.64,-68.12 320.64,-87.12 336.64,-87.12 336.64,-68.12 320.64,-68.12"/>
<polyline fill="none" stroke="black" points="336.64,-68.12 336.64,-87.12 "/>
<text text-anchor="start" x="323.64" y="-74.52" font-family="sans-serif" font-size="12.00">D</text>
<polygon fill="white" stroke="transparent" points="336.64,-68.12 336.64,-87.12 366.64,-87.12 366.64,-68.12 336.64,-68.12"/>
<polygon fill="none" stroke="black" points="336.64,-68.12 336.64,-87.12 366.64,-87.12 366.64,-68.12 336.64,-68.12"/>
<text text-anchor="start" x="339.64" y="-74.52" font-family="sans-serif" font-size="12.00">ACL</text>
<polygon fill="white" stroke="transparent" points="368.9,-275.96 368.9,-292.96 382.9,-292.96 382.9,-275.96 368.9,-275.96"/>
<text text-anchor="start" x="370.9" y="-281.36" font-family="sans-serif" font-size="12.00">U</text>
</g>
</g>
</svg>
